HIERARCHY
ROOT hip
{
  OFFSET 0.0 0.0 0.0
  CHANNELS 6 Xposition Yposition Zposition Zrotation Yrotation Xrotation
  JOINT abdomen
  {
    OFFSET 0.0 20.6881 -0.73152
    CHANNELS 3 Zrotation Xrotation Yrotation
    JOINT chest
    {
      OFFSET 0.0 11.7043 -0.48768
      CHANNELS 3 Zrotation Xrotation Yrotation
      JOINT neck
      {
        OFFSET 0.0 22.1894 -2.19456
        CHANNELS 3 Zrotation Xrotation Yrotation
        JOINT head
        {
          OFFSET -0.24384 7.07133 1.2192
          CHANNELS 3 Zrotation Xrotation Yrotation
          JOINT leftEye
          {
            OFFSET 4.14528 8.04674 8.04672
            CHANNELS 3 Zrotation Xrotation Yrotation
            End Site
            {
              OFFSET 1.0 0.0 0.0
            }
          }
          JOINT rightEye
          {
            OFFSET -3.6576 8.04674 8.04672
            CHANNELS 3 Zrotation Xrotation Yrotation
            End Site
            {
              OFFSET 1.0 0.0 0.0
            }
          }
        }
      }
      JOINT rCollar
      {
        OFFSET -2.68224 19.2634 -4.8768
        CHANNELS 3 Zrotation Xrotation Yrotation
        JOINT rShldr
        {
          OFFSET -8.77824 -1.95073 1.46304
          CHANNELS 3 Zrotation Xrotation Yrotation
          JOINT rForeArm
          {
            OFFSET -28.1742 -1.7115 0.48768
            CHANNELS 3 Zrotation Xrotation Yrotation
            JOINT rHand
            {
              OFFSET -22.5879 0.773209 7.07136
              CHANNELS 3 Zrotation Xrotation Yrotation
              JOINT rThumb1
              {
                OFFSET -1.2192 -0.487915 3.41376
                CHANNELS 3 Zrotation Xrotation Yrotation
                JOINT rThumb2
                {
                  OFFSET -3.37035 -0.52449 3.41376
                  CHANNELS 3 Zrotation Xrotation Yrotation
                  End Site
                  {
                    OFFSET -1.78271 -1.18214 1.43049
                  }
                }
              }
              JOINT rIndex1
              {
                OFFSET -7.75947 0.938293 5.60832
                CHANNELS 3 Zrotation Xrotation Yrotation
                JOINT rIndex2
                {
                  OFFSET -2.54057 -0.884171 1.56538
                  CHANNELS 3 Zrotation Xrotation Yrotation
                  End Site
                  {
                    OFFSET -1.62519 -0.234802 1.16502
                  }
                }
              }
              JOINT rMid1
              {
                OFFSET -8.24714 1.18213 3.41376
                CHANNELS 3 Zrotation Xrotation Yrotation
                JOINT rMid2
                {
                  OFFSET -3.10165 -0.590103 1.0647
                  CHANNELS 3 Zrotation Xrotation Yrotation
                  End Site
                  {
                    OFFSET -2.48547 -0.328903 0.83742
                  }
                }
              }
              JOINT rRing1
              {
                OFFSET -8.82822 0.546677 1.51678
                CHANNELS 3 Zrotation Xrotation Yrotation
                JOINT rRing2
                {
                  OFFSET -2.60934 -0.819778 -0.0198488
                  CHANNELS 3 Zrotation Xrotation Yrotation
                  End Site
                  {
                    OFFSET -2.33842 -0.294052 0.168128
                  }
                }
              }
              JOINT rPinky1
              {
                OFFSET -8.27202 -0.0477905 -0.4584
                CHANNELS 3 Zrotation Xrotation Yrotation
                JOINT rPinky2
                {
                  OFFSET -1.82734 -0.647385 -0.700984
                  CHANNELS 3 Zrotation Xrotation Yrotation
                  End Site
                  {
                    OFFSET -1.69225 -0.51767 -0.607171
                  }
                }
              }
            }
          }
        }
      }
      JOINT lCollar
      {
        OFFSET 2.68224 19.2634 -4.8768
        CHANNELS 3 Zrotation Xrotation Yrotation
        JOINT lShldr
        {
          OFFSET 8.77824 -1.95073 1.46304
          CHANNELS 3 Zrotation Xrotation Yrotation
          JOINT lForeArm
          {
            OFFSET 28.1742 -1.7115 0.48768
            CHANNELS 3 Zrotation Xrotation Yrotation
            JOINT lHand
            {
              OFFSET 22.5879 0.773209 7.07136
              CHANNELS 3 Zrotation Xrotation Yrotation
              JOINT lThumb1
              {
                OFFSET 1.2192 -0.487915 3.41376
                CHANNELS 3 Zrotation Xrotation Yrotation
                JOINT lThumb2
                {
                  OFFSET 3.37035 -0.52449 3.41376
                  CHANNELS 3 Zrotation Xrotation Yrotation
                  End Site
                  {
                    OFFSET 1.78271 -1.18214 1.43049
                  }
                }
              }
              JOINT lIndex1
              {
                OFFSET 7.75947 0.938293 5.60832
                CHANNELS 3 Zrotation Xrotation Yrotation
                JOINT lIndex2
                {
                  OFFSET 2.54057 -0.884171 1.56538
                  CHANNELS 3 Zrotation Xrotation Yrotation
                  End Site
                  {
                    OFFSET 1.62519 -0.234802 1.16502
                  }
                }
              }
              JOINT lMid1
              {
                OFFSET 8.24714 1.18213 3.41376
                CHANNELS 3 Zrotation Xrotation Yrotation
                JOINT lMid2
                {
                  OFFSET 3.10165 -0.590103 1.0647
                  CHANNELS 3 Zrotation Xrotation Yrotation
                  End Site
                  {
                    OFFSET 2.48547 -0.328903 0.83742
                  }
                }
              }
              JOINT lRing1
              {
                OFFSET 8.82822 0.546677 1.51678
                CHANNELS 3 Zrotation Xrotation Yrotation
                JOINT lRing2
                {
                  OFFSET 2.60934 -0.819778 -0.0198488
                  CHANNELS 3 Zrotation Xrotation Yrotation
                  End Site
                  {
                    OFFSET 2.33842 -0.294052 0.168128
                  }
                }
              }
              JOINT lPinky1
              {
                OFFSET 8.27202 -0.0477905 -0.4584
                CHANNELS 3 Zrotation Xrotation Yrotation
                JOINT lPinky2
                {
                  OFFSET 1.82734 -0.647385 -0.700984
                  CHANNELS 3 Zrotation Xrotation Yrotation
                  End Site
                  {
                    OFFSET 1.69225 -0.51767 -0.607171
                  }
                }
              }
            }
          }
        }
      }
    }
  }
  JOINT rButtock
  {
    OFFSET -8.77824 4.35084 1.2192
    CHANNELS 3 Zrotation Xrotation Yrotation
    JOINT rThigh
    {
      OFFSET 0.0 -1.70687 -2.19456
      CHANNELS 3 Zrotation Xrotation Yrotation
      JOINT rShin
      {
        OFFSET 0.0 -36.8199 0.73152
        CHANNELS 3 Zrotation Xrotation Yrotation
        JOINT rFoot
        {
          OFFSET 0.73152 -45.1104 -5.12064
          CHANNELS 3 Zrotation Xrotation Yrotation
          End Site
          {
            OFFSET -1.1221 -3.69964 12.103
          }
        }
      }
    }
  }
  JOINT lButtock
  {
    OFFSET 8.77824 4.35084 1.2192
    CHANNELS 3 Zrotation Xrotation Yrotation
    JOINT lThigh
    {
      OFFSET 0.0 -1.70687 -2.19456
      CHANNELS 3 Zrotation Xrotation Yrotation
      JOINT lShin
      {
        OFFSET 0.0 -36.8199 0.73152
        CHANNELS 3 Zrotation Xrotation Yrotation
        JOINT lFoot
        {
          OFFSET -0.73152 -45.1104 -5.12064
          CHANNELS 3 Zrotation Xrotation Yrotation
          End Site
          {
            OFFSET 1.1221 -3.69964 12.103
          }
        }
      }
    }
  }
}
MOTION
Frames: 6
Frame Time: 0.00833333
6.891999999999996 83.7261 -6.77998 -8.581 86.38 -10.543 0.275753 2.26327 1.66662 -0.457045 0.154487 0.517416 2.32229 1.31353 1.2281 -1.47918 -4.62202 1.78063 -0.0 0.0 0.0 -0.0 0.0 0.0 -3.51502e-14 7.85146e-13 8.89367e-14 22.8929 7.57715 -0.911505 -5.41219 -2.75482 8.10761 0.0644686 -5.63723 -0.778477 -1.44131e-10 -1.32526e-10 6.18823e-11 -2.50582e-10 -2.28753e-10 1.05547e-10 -1.44127e-10 -1.32524e-10 6.18719e-11 7.73091 5.47488 0.417314 -1.44133e-10 -1.32526e-10 6.18806e-11 2.90554 0.965183 0.102902 -1.44125e-10 -1.32526e-10 6.18838e-11 10.2786 0.731801 0.0259123 -1.44136e-10 -1.32524e-10 6.18968e-11 2.22167 -0.733487 -0.20892 -3.53069e-14 7.85146e-13 8.85904e-14 -21.0081 9.46832 -0.786079 4.49134 -2.09772 -6.95224 -8.11535e-05 0.199866 -0.0280887 -2.35111e-10 1.4962e-10 1.55505e-10 -4.05902e-10 2.59187e-10 2.69266e-10 -2.35115e-10 1.4962e-10 1.55514e-10 -7.73091 5.47488 -0.417314 -2.3511e-10 1.4962e-10 1.55496e-10 -2.90554 0.965183 -0.102902 -2.35119e-10 1.4962e-10 1.55501e-10 -10.2786 0.731801 -0.0259123 -2.35104e-10 1.49622e-10 1.5549e-10 -2.22167 -0.733487 0.20892 -2.03217e-16 0.0 -3.88251e-19 2.70895 -6.55268 4.35373 0.0601161 11.0635 0.210422 -2.11848 -6.10929 -8.58556 2.03217e-16 0.0 3.88251e-19 -0.866152 -5.26589 -4.74666 -0.052147 8.5086 -0.147911 1.50541 -3.76739 6.6387
6.8840000000000146 83.7215 -6.771800000000001 -8.8181 86.3428 -10.7357 -0.116573 4.65563 3.42399 -1.09533 0.324182 1.03923 4.71615 2.69784 2.52693 -2.72549 -9.49535 3.69841 -0.0 0.0 0.0 -0.0 0.0 0.0 -6.72237e-14 1.69411e-12 1.89547e-13 47.3675 15.5753 -1.92931 -10.2935 -5.48221 16.7363 -0.0370766 -11.5917 -1.6267 -2.4958e-10 -2.84048e-10 1.52335e-10 -4.34831e-10 -4.90322e-10 2.60185e-10 -2.49577e-10 -2.84045e-10 1.52324e-10 7.73091 5.47488 0.417314 -2.49582e-10 -2.84048e-10 1.52332e-10 2.90554 0.965183 0.102902 -2.49575e-10 -2.84048e-10 1.52336e-10 10.2786 0.731801 0.0259123 -2.49585e-10 -2.84047e-10 1.52349e-10 2.22167 -0.733487 -0.20892 -6.73362e-14 1.69411e-12 1.89311e-13 -42.9205 19.4607 -1.69762 8.68342 -4.20731 -14.3213 4.62685e-05 0.411617 -0.057849 -4.33226e-10 3.19166e-10 3.09714e-10 -7.47962e-10 5.52875e-10 5.36327e-10 -4.3323e-10 3.19167e-10 3.09722e-10 -7.73091 5.47488 -0.417314 -4.33227e-10 3.19166e-10 3.09706e-10 -2.90554 0.965183 -0.102902 -4.33236e-10 3.19167e-10 3.09712e-10 -10.2786 0.731801 -0.0259123 -4.33222e-10 3.19168e-10 3.09704e-10 -2.22167 -0.733487 0.20892 -2.03217e-16 0.0 -3.88251e-19 5.02681 -8.74337 9.08336 0.0490082 20.1799 0.465316 -6.54878 -14.083 -18.2302 2.03217e-16 0.0 3.88251e-19 -2.21845 -8.18675 -9.85352 -0.0332928 18.7356 -0.391514 4.50678 -11.2632 14.0358
6.866000000000014 83.7105 -6.75891 -9.6305 86.311 -11.4627 -0.592524 6.77387 5.00159 -1.66276 0.474121 1.50319 6.79772 3.93333 3.69205 -3.55527 -13.8117 5.48352 -0.0 0.0 0.0 -0.0 0.0 0.0 -9.34212e-14 2.35541e-12 2.66413e-13 69.4534 22.7074 -2.93859 -13.9586 -7.60393 24.5242 -0.283656 -16.8989 -2.42909 -3.13718e-10 -3.97743e-10 1.8634e-10 -5.46805e-10 -6.86538e-10 3.17836e-10 -3.13715e-10 -3.97739e-10 1.86328e-10 7.73091 5.47488 0.417314 -3.1372e-10 -3.97744e-10 1.86335e-10 2.90554 0.965183 0.102902 -3.13714e-10 -3.97744e-10 1.8634e-10 10.2786 0.731801 0.0259123 -3.13723e-10 -3.97743e-10 1.86352e-10 2.22167 -0.733487 -0.20892 -9.34988e-14 2.35541e-12 2.66268e-13 -62.1546 28.3821 -2.64412 11.9775 -5.92333 -20.9598 0.00034446 0.599596 -0.0842701 -5.86611e-10 4.48642e-10 4.67183e-10 -1.01269e-09 7.77185e-10 8.08957e-10 -5.86614e-10 4.48642e-10 4.6719e-10 -7.73091 5.47488 -0.417314 -5.86613e-10 4.48641e-10 4.67176e-10 -2.90554 0.965183 -0.102902 -5.86622e-10 4.48642e-10 4.67183e-10 -10.2786 0.731801 -0.0259123 -5.86609e-10 4.48643e-10 4.67177e-10 -2.22167 -0.733487 0.20892 -2.03217e-16 0.0 -3.88251e-19 7.40345 -10.6038 13.3533 -0.0391431 28.3098 0.729242 -12.8595 -20.1356 -27.6139 2.03217e-16 0.0 3.88251e-19 -3.86857 -10.6682 -14.4818 0.0669477 27.8565 -0.645644 8.87243 -17.3832 21.1308
6.856999999999999 83.7044 -6.75398 -10.0132 86.3036 -11.7984 -0.997287 8.22872 6.09988 -2.04712 0.57481 1.82246 8.21718 4.80361 4.51559 -3.97164 -16.7869 6.8025 -0.0 0.0 0.0 -0.0 0.0 0.0 -1.04929e-13 2.39759e-12 2.83914e-13 85.0052 27.6972 -3.73452 -16.1634 -8.84002 30.0185 -0.550424 -20.6 -3.02811 -2.7458e-10 -4.16872e-10 7.92244e-11 -4.78091e-10 -7.19372e-10 1.33016e-10 -2.74577e-10 -4.16868e-10 7.92117e-11 7.73091 5.47488 0.417314 -2.74582e-10 -4.16873e-10 7.92181e-11 2.90554 0.965183 0.102902 -2.74576e-10 -4.16874e-10 7.92228e-11 10.2786 0.731801 0.0259123 -2.74584e-10 -4.16873e-10 7.9234e-11 2.22167 -0.733487 -0.20892 -1.04995e-13 2.39759e-12 2.83815e-13 -75.3419 34.6481 -3.407 14.0602 -7.00316 -25.6753 0.0006503 0.728144 -0.102339 -6.28169e-10 4.77939e-10 6.32803e-10 -1.08411e-09 8.28045e-10 1.09551e-09 -6.28171e-10 4.77939e-10 6.3281e-10 -7.73091 5.47488 -0.417314 -6.28171e-10 4.77939e-10 6.32797e-10 -2.90554 0.965183 -0.102902 -6.2818e-10 4.77939e-10 6.32804e-10 -10.2786 0.731801 -0.0259123 -6.28168e-10 4.7794e-10 6.328e-10 -2.22167 -0.733487 0.20892 -2.03217e-16 0.0 -3.88251e-19 9.22616 -11.8402 16.3544 -0.154701 33.9754 0.946432 -18.5228 -23.471 -34.6605 2.03217e-16 0.0 3.88251e-19 -5.25809 -12.3134 -17.7429 0.195527 34.2132 -0.858364 12.8644 -21.1473 26.4578
6.85499999999999 83.7047 -6.749510000000001 -9.9846 86.2767 -11.7627 -1.17126 8.76506 6.50625 -2.17481 0.603704 1.93909 8.76271 5.17606 4.85708 -4.10629 -17.9301 7.37474 -0.0 0.0 0.0 -0.0 0.0 0.0 -9.46938e-14 1.3091e-12 1.99499e-13 91.1156 29.7106 -4.08241 -16.9622 -9.26594 32.2006 -0.678653 -22.0619 -3.27607 -3.94443e-11 -2.67888e-10 -3.10432e-10 -6.64082e-11 -4.61673e-10 -5.37451e-10 -3.94402e-11 -2.67884e-10 -3.10445e-10 7.73091 5.47488 0.417314 -3.94463e-11 -2.6789e-10 -3.1044e-10 2.90554 0.965183 0.102902 -3.94383e-11 -2.67889e-10 -3.10436e-10 10.2786 0.731801 0.0259123 -3.9447e-11 -2.67889e-10 -3.10427e-10 2.22167 -0.733487 -0.20892 -9.4788e-14 1.3091e-12 1.99371e-13 -80.4439 37.2122 -3.67542 14.8807 -7.43483 -27.65 0.000836384 0.790929 -0.111166 -4.73015e-10 3.39338e-10 8.62518e-10 -8.15321e-10 5.88239e-10 1.49261e-09 -4.73018e-10 3.39339e-10 8.62523e-10 -7.73091 5.47488 -0.417314 -4.73016e-10 3.39338e-10 8.62513e-10 -2.90554 0.965183 -0.102902 -4.73025e-10 3.39339e-10 8.62519e-10 -10.2786 0.731801 -0.0259123 -4.73013e-10 3.39339e-10 8.62515e-10 -2.22167 -0.733487 0.20892 -2.03217e-16 0.0 -3.88251e-19 9.96908 -12.3361 17.5097 -0.214547 36.1892 1.04102 -20.9677 -24.5413 -37.4728 2.03217e-16 0.0 3.88251e-19 -5.8391 -12.9732 -18.9835 0.26219 36.7041 -0.951971 14.5986 -22.4278 28.6129
6.848000000000013 83.7011 -6.737220000000001 -10.5906 86.2417 -12.3345 -1.1523 8.64984 6.41259 -2.11851 0.581481 1.91097 8.69674 5.19396 4.85265 -4.11302 -17.7758 7.38419 -0.0 0.0 0.0 -0.0 0.0 0.0 -6.89839e-14 -5.74439e-13 4.31829e-14 90.4006 29.6036 -4.05971 -16.8916 -9.23592 31.9941 -0.665513 -21.9271 -3.25271 3.33242e-10 -5.22998e-13 -8.97857e-10 5.85967e-10 6.05099e-13 -1.54785e-09 3.33247e-10 -5.20889e-13 -8.9787e-10 7.73091 5.47488 0.417314 3.3324e-10 -5.26454e-13 -8.97867e-10 2.90554 0.965183 0.102902 3.3325e-10 -5.2526e-13 -8.97864e-10 10.2786 0.731801 0.0259123 3.33241e-10 -5.25052e-13 -8.97858e-10 2.22167 -0.733487 -0.20892 -6.91356e-14 -5.74439e-13 4.29717e-14 -79.8775 37.1378 -3.51211 14.8968 -7.47514 -27.6525 0.000894176 0.80591 -0.113272 -1.79265e-10 8.21278e-11 1.13551e-09 -3.06849e-10 1.43093e-10 1.96434e-09 -1.79267e-10 8.21285e-11 1.13551e-09 -7.73091 5.47488 -0.417314 -1.79264e-10 8.21266e-11 1.1355e-09 -2.90554 0.965183 -0.102902 -1.79273e-10 8.21279e-11 1.13551e-09 -10.2786 0.731801 -0.0259123 -1.7926e-10 8.21279e-11 1.1355e-09 -2.22167 -0.733487 0.20892 -2.03217e-16 0.0 -3.88251e-19 9.87058 -12.338 17.3301 -0.207467 35.9381 1.02883 -20.6267 -24.4424 -37.0555 2.03217e-16 0.0 3.88251e-19 -5.7418 -12.9781 -18.7542 0.254567 36.4341 -0.93903 14.324 -22.1805 28.322
